<svg xmlns="http://www.w3.org/2000/svg" viewBox="0 0 100 100" width="100" height="100">
  <!-- Background -->
  <rect x="10" y="10" width="80" height="80" rx="8" fill="#2563eb" />
  
  <!-- Brain outline -->
  <path d="M50,25 C63.807,25 75,36.193 75,50 C75,63.807 63.807,75 50,75 C36.193,75 25,63.807 25,50 C25,36.193 36.193,25 50,25 Z" fill="none" stroke="white" stroke-width="2" />
  
  <!-- Neural network nodes -->
  <circle cx="40" cy="35" r="3" fill="white" />
  <circle cx="60" cy="35" r="3" fill="white" />
  <circle cx="30" cy="50" r="3" fill="white" />
  <circle cx="50" cy="50" r="3" fill="white" />
  <circle cx="70" cy="50" r="3" fill="white" />
  <circle cx="40" cy="65" r="3" fill="white" />
  <circle cx="60" cy="65" r="3" fill="white" />
  
  <!-- Neural network connections -->
  <path d="M40,35 L30,50 M40,35 L50,50 M40,35 L70,50 M60,35 L30,50 M60,35 L50,50 M60,35 L70,50 M30,50 L40,65 M30,50 L60,65 M50,50 L40,65 M50,50 L60,65 M70,50 L40,65 M70,50 L60,65" stroke="white" stroke-width="1" />
</svg> 