<svg xmlns="http://www.w3.org/2000/svg" viewBox="0 0 100 100" width="100" height="100">
  <!-- Background -->
  <rect x="10" y="10" width="80" height="80" rx="8" fill="#2563eb" />
  
  <!-- Cloud shape -->
  <path d="M65,60 C72.732,60 79,53.732 79,46 C79,38.268 72.732,32 65,32 C64.668,32 64.339,32.012 64.012,32.035 C61.367,25.875 55.044,22 48,22 C38.059,22 30,30.059 30,40 C30,40.341 30.012,40.679 30.035,41.015 C24.611,41.889 20.5,46.606 20.5,52.25 C20.5,58.464 25.536,63.5 31.75,63.5 L65,63.5 C65.107,63.5 65.214,63.499 65.32,63.496 C65.214,63.499 65.107,63.5 65,63.5" fill="white" />
  
  <!-- Server stack -->
  <rect x="40" y="45" width="30" height="8" rx="1" fill="#e5e7eb" />
  <rect x="40" y="55" width="30" height="8" rx="1" fill="#e5e7eb" />
  <rect x="40" y="65" width="30" height="8" rx="1" fill="#e5e7eb" />
  
  <!-- Connection lines -->
  <path d="M45,45 L45,73 M55,45 L55,73 M65,45 L65,73" stroke="#2563eb" stroke-width="1.5" />
</svg> 